<svg width="11" height="15" viewBox="0 0 11 15" fill="none" xmlns="http://www.w3.org/2000/svg">
<path d="M4.74575 14.0955C4.74575 14.4464 5.03034 14.731 5.38123 14.731C5.73207 14.731 6.01672 14.4468 6.01672 14.0955V1.47291C6.01672 1.12201 5.73214 0.837427 5.38123 0.837427C5.03033 0.837427 4.74575 1.12202 4.74575 1.47291V14.0955Z" fill="#00A79D" stroke="#00A79D" stroke-width="0.3"/>
<path d="M5.38111 2.37293L1.94675 5.8073L5.38111 2.37293ZM5.38111 2.37293L8.81558 5.80739C8.9395 5.93132 9.10263 5.9935 9.26491 5.99351L5.38111 2.37293ZM1.04791 5.80739C1.29609 6.05557 1.69865 6.05574 1.94665 5.80739L9.26495 5.99351C9.42692 5.9935 9.59018 5.93187 9.71433 5.80734C9.96254 5.55908 9.96252 5.1569 9.71428 4.90866L5.83047 1.02484C5.58229 0.776668 5.17973 0.776497 4.93173 1.02484C4.9317 1.02487 4.93166 1.02491 4.93163 1.02494L1.04791 4.90866C0.799654 5.15692 0.799654 5.55913 1.04791 5.80739Z" fill="#00A79D" stroke="#00A79D" stroke-width="0.3"/>
</svg>
