<svg width="100" height="100" viewBox="0 0 100 100" fill="none" xmlns="http://www.w3.org/2000/svg">
<rect width="100" height="100" rx="5" fill="#E2E6EC"/>
<path fill-rule="evenodd" clip-rule="evenodd" d="M28.6667 37C28.6667 34.6067 30.6068 32.6666 33 32.6666H67C69.3932 32.6666 71.3334 34.6067 71.3334 37V63.6666C71.3334 66.0599 69.3933 68 67 68H33C30.6068 68 28.6667 66.0599 28.6667 63.6666V37ZM33 34.6666C31.7114 34.6666 30.6667 35.7113 30.6667 37V63.6666C30.6667 64.9553 31.7114 66 33 66H67C68.2887 66 69.3334 64.9553 69.3334 63.6666V37C69.3334 35.7113 68.2887 34.6666 67 34.6666H33Z" fill="#B2B9C4"/>
<ellipse cx="38.6667" cy="42" rx="4.33333" ry="4.33333" fill="#B2B9C4"/>
<path d="M34.3334 60.3333V58.3569C34.3334 57.9149 34.509 57.491 34.8215 57.1784L40.2096 51.7903C40.8387 51.1612 41.851 51.1371 42.5093 51.7356L43.8406 52.9459C44.4922 53.5382 45.4921 53.5215 46.1235 52.9076L55.8218 43.4788C56.4752 42.8435 57.5177 42.8509 58.1621 43.4953L65.8452 51.1784C66.1578 51.491 66.3334 51.9149 66.3334 52.3569V60.3333C66.3334 61.2537 65.5872 61.9999 64.6667 61.9999H36C35.0796 61.9999 34.3334 61.2537 34.3334 60.3333Z" fill="#B2B9C4"/>
</svg>
