<svg width="16" height="17" viewBox="0 0 16 17" fill="none" xmlns="http://www.w3.org/2000/svg">
<path d="M8 2.24451V6.91117L9.33333 5.57784" stroke="#202020" stroke-width="1.5" stroke-linecap="round" stroke-linejoin="round"/>
<path d="M8.00033 6.91121L6.66699 5.57788" stroke="#202020" stroke-width="1.5" stroke-linecap="round" stroke-linejoin="round"/>
<path d="M1.32031 9.57788H4.26031C4.51365 9.57788 4.74031 9.71788 4.85365 9.94455L5.63365 11.5045C5.86031 11.9579 6.32031 12.2445 6.82698 12.2445H9.18031C9.68698 12.2445 10.147 11.9579 10.3736 11.5045L11.1536 9.94455C11.267 9.71788 11.5003 9.57788 11.747 9.57788H14.6536" stroke="#202020" stroke-width="1.5" stroke-linecap="round" stroke-linejoin="round"/>
<path d="M4.66634 3.66455C2.30634 4.01122 1.33301 5.39788 1.33301 8.24455V10.9112C1.33301 14.2446 2.66634 15.5779 5.99967 15.5779H9.99967C13.333 15.5779 14.6663 14.2446 14.6663 10.9112V8.24455C14.6663 5.39788 13.693 4.01122 11.333 3.66455" stroke="#202020" stroke-width="1.5" stroke-linecap="round" stroke-linejoin="round"/>
</svg>
