<svg width="17" height="16" viewBox="0 0 17 16" fill="none" xmlns="http://www.w3.org/2000/svg">
<path d="M5.35957 11.4999C7.25957 13.3999 10.4596 13.3999 12.3596 11.4999C13.0596 10.7999 13.5596 9.79989 13.7596 8.79989L15.7596 9.09989C15.5596 10.5999 14.8596 11.8999 13.8596 12.8999C11.1596 15.5999 6.75957 15.5999 3.95957 12.8999L1.75957 15.0999L1.05957 8.69989L7.45957 9.39989L5.35957 11.4999Z" fill="#62646A"/>
<path d="M16.659 7.2999L10.259 6.5999L12.359 4.4999C10.459 2.5999 7.25898 2.5999 5.35898 4.4999C4.65898 5.1999 4.15898 6.1999 3.95898 7.1999L1.95898 6.8999C2.15898 5.3999 2.85898 4.0999 3.85898 3.0999C5.25898 1.6999 6.95898 1.0999 8.75898 1.0999C10.559 1.0999 12.359 1.7999 13.659 3.0999L15.859 0.899902L16.659 7.2999Z" fill="#62646A"/>
</svg>
