<svg width="16" height="16" viewBox="0 0 16 16" fill="none" xmlns="http://www.w3.org/2000/svg">
<g clip-path="url(#clip0_141_3042)">
<path d="M5.30204 13.2393L0.230042 8.16729C0.157432 8.09487 0.0998231 8.00884 0.0605163 7.91411C0.0212095 7.81939 0.000976563 7.71785 0.000976562 7.61529C0.000976563 7.51274 0.0212095 7.41119 0.0605163 7.31647C0.0998231 7.22175 0.157432 7.13572 0.230042 7.06329L1.33404 5.96075C1.6395 5.65529 2.13259 5.65529 2.43659 5.96075L5.85477 9.37748L13.1697 2.05966C13.4751 1.7542 13.9697 1.7542 14.2737 2.05966L15.3762 3.1622C15.6817 3.46766 15.6817 3.9622 15.3762 4.2662L6.40459 13.2393C6.10059 13.5447 5.60604 13.5447 5.30204 13.2393Z" fill="#00A79D"/>
</g>
<defs>
<clipPath id="clip0_141_3042">
<rect width="16" height="16" fill="white"/>
</clipPath>
</defs>
</svg>
