<svg width="123" height="124" viewBox="0 0 123 124" fill="none" xmlns="http://www.w3.org/2000/svg">
<g filter="url(#filter0_f_0_1392)">
<rect x="4" y="4.64722" width="114.487" height="114.487" rx="5" fill="#E2E6EC"/>
<path fill-rule="evenodd" clip-rule="evenodd" d="M29.4415 42.1562C29.4415 38.614 32.313 35.7424 35.8553 35.7424H86.1783C89.7205 35.7424 92.592 38.614 92.592 42.1562V81.6252C92.592 85.1674 89.7205 88.039 86.1783 88.039H35.8553C32.3131 88.039 29.4415 85.1674 29.4415 81.6252V42.1562ZM35.8553 38.7026C33.9479 38.7026 32.4017 40.2488 32.4017 42.1562V81.6252C32.4017 83.5326 33.9479 85.0788 35.8553 85.0788H86.1783C88.0857 85.0788 89.6319 83.5326 89.6319 81.6252V42.1562C89.6319 40.2488 88.0857 38.7026 86.1783 38.7026H35.8553Z" fill="#B2B9C4"/>
<ellipse cx="44.2425" cy="49.5565" rx="6.41372" ry="6.41372" fill="#B2B9C4"/>
<path d="M37.8287 77.4917V73.435C37.8287 72.993 38.0043 72.569 38.3169 72.2565L47.0656 63.5077C47.6947 62.8787 48.707 62.8546 49.3653 63.453L52.4569 66.2636C53.1085 66.856 54.1085 66.8392 54.7398 66.2254L70.1992 51.1955C70.8526 50.5602 71.8951 50.5676 72.5395 51.212L84.7035 63.3759C85.016 63.6885 85.1916 64.1124 85.1916 64.5545V77.4917C85.1916 78.4122 84.4454 79.1584 83.525 79.1584H39.4954C38.5749 79.1584 37.8287 78.4122 37.8287 77.4917Z" fill="#B2B9C4"/>
</g>
<defs>
<filter id="filter0_f_0_1392" x="0" y="0.647217" width="122.487" height="122.487" filterUnits="userSpaceOnUse" color-interpolation-filters="sRGB">
<feFlood flood-opacity="0" result="BackgroundImageFix"/>
<feBlend mode="normal" in="SourceGraphic" in2="BackgroundImageFix" result="shape"/>
<feGaussianBlur stdDeviation="2" result="effect1_foregroundBlur_0_1392"/>
</filter>
</defs>
</svg>
