<svg width="16" height="17" viewBox="0 0 16 17" fill="none" xmlns="http://www.w3.org/2000/svg">
<path d="M11.9997 5.68451C11.9597 5.67784 11.9131 5.67784 11.8731 5.68451C10.9531 5.65118 10.2197 4.89784 10.2197 3.96451C10.2197 3.01117 10.9864 2.24451 11.9397 2.24451C12.8931 2.24451 13.6597 3.01784 13.6597 3.96451C13.6531 4.89784 12.9197 5.65118 11.9997 5.68451Z" stroke="#202020" stroke-width="1.5" stroke-linecap="round" stroke-linejoin="round"/>
<path d="M11.313 10.5378C12.2263 10.6912 13.233 10.5312 13.9396 10.0578C14.8796 9.43116 14.8796 8.40449 13.9396 7.77783C13.2263 7.30449 12.2063 7.14449 11.293 7.30449" stroke="#202020" stroke-width="1.5" stroke-linecap="round" stroke-linejoin="round"/>
<path d="M3.98031 5.68451C4.02031 5.67784 4.06698 5.67784 4.10698 5.68451C5.02698 5.65118 5.76031 4.89784 5.76031 3.96451C5.76031 3.01117 4.99365 2.24451 4.04031 2.24451C3.08698 2.24451 2.32031 3.01784 2.32031 3.96451C2.32698 4.89784 3.06031 5.65118 3.98031 5.68451Z" stroke="#202020" stroke-width="1.5" stroke-linecap="round" stroke-linejoin="round"/>
<path d="M4.66663 10.5378C3.75329 10.6912 2.74663 10.5312 2.03996 10.0578C1.09996 9.43116 1.09996 8.40449 2.03996 7.77783C2.75329 7.30449 3.77329 7.14449 4.68663 7.30449" stroke="#202020" stroke-width="1.5" stroke-linecap="round" stroke-linejoin="round"/>
<path d="M8.0007 10.6646C7.9607 10.6579 7.91404 10.6579 7.87404 10.6646C6.95404 10.6312 6.2207 9.87788 6.2207 8.94455C6.2207 7.99122 6.98737 7.22455 7.9407 7.22455C8.89403 7.22455 9.6607 7.99788 9.6607 8.94455C9.65404 9.87788 8.9207 10.6379 8.0007 10.6646Z" stroke="#202020" stroke-width="1.5" stroke-linecap="round" stroke-linejoin="round"/>
<path d="M6.06047 12.7646C5.12047 13.3912 5.12047 14.4179 6.06047 15.0446C7.12714 15.7579 8.8738 15.7579 9.94047 15.0446C10.8805 14.4179 10.8805 13.3912 9.94047 12.7646C8.88047 12.0579 7.12714 12.0579 6.06047 12.7646Z" stroke="#202020" stroke-width="1.5" stroke-linecap="round" stroke-linejoin="round"/>
</svg>
