<svg width="16" height="17" viewBox="0 0 16 17" fill="none" xmlns="http://www.w3.org/2000/svg">
<path d="M8 10.5C9.10457 10.5 10 9.60457 10 8.5C10 7.39543 9.10457 6.5 8 6.5C6.89543 6.5 6 7.39543 6 8.5C6 9.60457 6.89543 10.5 8 10.5Z" stroke="#202020" stroke-width="1.5" stroke-miterlimit="10" stroke-linecap="round" stroke-linejoin="round"/>
<path d="M1.33301 9.08667V7.91333C1.33301 7.22 1.89967 6.64667 2.59967 6.64667C3.80634 6.64667 4.29967 5.79333 3.69301 4.74667C3.34634 4.14667 3.55301 3.36667 4.15967 3.02L5.31301 2.36C5.83967 2.04666 6.51967 2.23333 6.83301 2.76L6.90634 2.88666C7.50634 3.93333 8.49301 3.93333 9.09967 2.88666L9.17301 2.76C9.48634 2.23333 10.1663 2.04666 10.693 2.36L11.8463 3.02C12.453 3.36667 12.6597 4.14667 12.313 4.74667C11.7063 5.79333 12.1997 6.64667 13.4063 6.64667C14.0997 6.64667 14.673 7.21333 14.673 7.91333V9.08667C14.673 9.78 14.1063 10.3533 13.4063 10.3533C12.1997 10.3533 11.7063 11.2067 12.313 12.2533C12.6597 12.86 12.453 13.6333 11.8463 13.98L10.693 14.64C10.1663 14.9533 9.48634 14.7667 9.17301 14.24L9.09967 14.1133C8.49967 13.0667 7.51301 13.0667 6.90634 14.1133L6.83301 14.24C6.51967 14.7667 5.83967 14.9533 5.31301 14.64L4.15967 13.98C3.55301 13.6333 3.34634 12.8533 3.69301 12.2533C4.29967 11.2067 3.80634 10.3533 2.59967 10.3533C1.89967 10.3533 1.33301 9.78 1.33301 9.08667Z" stroke="#202020" stroke-width="1.5" stroke-miterlimit="10" stroke-linecap="round" stroke-linejoin="round"/>
</svg>
