<svg width="44" height="45" viewBox="0 0 44 45" fill="none" xmlns="http://www.w3.org/2000/svg">
<path fill-rule="evenodd" clip-rule="evenodd" d="M0 0H44V33.2436C43.2012 33.2974 42.3973 33.3065 41.592 33.27C37.3603 33.0783 33.2805 31.636 29.8685 29.1255C26.4565 26.6151 23.8655 23.1492 22.4233 19.1662C20.981 15.1833 20.7523 10.8621 21.7659 6.74906L16.2098 5.37978C15.3889 8.7109 15.2111 12.1498 15.6668 15.5157C15.3267 15.319 14.9757 15.2567 14.6593 15.367C14.3501 15.4747 14.1176 15.7319 13.9726 16.0844C12.0338 13.0739 9.55426 10.4391 6.65244 8.31712L3.20203 13.0355C6.06222 15.1271 8.40963 17.8414 10.0669 20.9732C11.7242 24.1051 12.648 27.5727 12.7685 31.114C12.889 34.6553 12.203 38.1777 10.7625 41.415C10.3 42.4542 9.76371 43.4554 9.1589 44.4112H0V0ZM16.9155 22.0532C17.933 24.8938 18.5073 27.8829 18.6105 30.9152C18.7611 35.3419 17.9037 39.7448 16.103 43.7914C16.0105 43.9993 15.9157 44.2059 15.8185 44.4112H44V38.9762C43.1144 39.0232 42.2244 39.0269 41.333 38.9865C35.9707 38.7435 30.8008 36.9158 26.4772 33.7347C22.3775 30.7182 19.2132 26.6132 17.3384 21.8932L16.9155 22.0532Z" fill="white"/>
</svg>
