<svg width="16" height="13" viewBox="0 0 16 13" fill="none" xmlns="http://www.w3.org/2000/svg">
<path d="M5.30204 12.2393L0.230042 7.16726C0.157432 7.09484 0.0998231 7.0088 0.0605163 6.91408C0.0212095 6.81936 0.000976563 6.71782 0.000976562 6.61526C0.000976563 6.51271 0.0212095 6.41116 0.0605163 6.31644C0.0998231 6.22172 0.157432 6.13569 0.230042 6.06326L1.33404 4.96072C1.6395 4.65526 2.13259 4.65526 2.43659 4.96072L5.85477 8.37745L13.1697 1.05963C13.4751 0.754172 13.9697 0.754172 14.2737 1.05963L15.3762 2.16217C15.6817 2.46763 15.6817 2.96217 15.3762 3.26617L6.40459 12.2393C6.10059 12.5447 5.60604 12.5447 5.30204 12.2393Z" fill="#DADBDD"/>
</svg>
