<svg width="114" height="180" viewBox="0 0 114 180" fill="none" xmlns="http://www.w3.org/2000/svg">
<g opacity="0.15">
<mask id="path-1-outside-1_630_30859" maskUnits="userSpaceOnUse" x="-12" y="-12" width="138" height="204" fill="black">
<rect fill="white" x="-12" y="-12" width="138" height="204"/>
<path d="M113.12 -1.43051e-05V180H52.16V22.56L79.28 47.76L0.0800002 61.68V14.4L68 -1.43051e-05H113.12Z"/>
</mask>
<path d="M113.12 -1.43051e-05H125.12V-12H113.12V-1.43051e-05ZM113.12 180V192H125.12V180H113.12ZM52.16 180H40.16V192H52.16V180ZM52.16 22.56L60.3284 13.7692L40.16 -4.97131V22.56H52.16ZM79.28 47.76L81.3573 59.5788L105.131 55.4004L87.4484 38.9692L79.28 47.76ZM0.0800004 61.68H-11.92V75.973L2.15725 73.4988L0.0800004 61.68ZM0.0800004 14.4L-2.40885 2.66092L-11.92 4.67742V14.4H0.0800004ZM68 -1.43051e-05V-12H66.7419L65.5112 -11.7391L68 -1.43051e-05ZM101.12 -1.43051e-05V180H125.12V-1.43051e-05H101.12ZM113.12 168H52.16V192H113.12V168ZM64.16 180V22.56H40.16V180H64.16ZM43.9916 31.3507L71.1116 56.5508L87.4484 38.9692L60.3284 13.7692L43.9916 31.3507ZM77.2028 35.9412L-1.99725 49.8611L2.15725 73.4988L81.3573 59.5788L77.2028 35.9412ZM12.08 61.68V14.4H-11.92V61.68H12.08ZM2.56885 26.1391L70.4889 11.739L65.5112 -11.7391L-2.40885 2.66092L2.56885 26.1391ZM68 12H113.12V-12H68V12Z" fill="#37B778" mask="url(#path-1-outside-1_630_30859)"/>
</g>
</svg>
