<svg width="192" height="185" viewBox="0 0 192 185" fill="none" xmlns="http://www.w3.org/2000/svg">
<g opacity="0.15">
<mask id="path-1-outside-1_630_30838" maskUnits="userSpaceOnUse" x="-13" y="-12" width="217" height="209" fill="black">
<rect fill="white" x="-13" y="-12" width="217" height="209"/>
<path d="M0.72 71.72C1.84 57 6.8 44.36 15.6 33.8C24.4 23.08 36.08 14.92 50.64 9.31999C65.36 3.55999 81.84 0.679998 100.08 0.679998C117.52 0.679998 132.72 3.32 145.68 8.6C158.64 13.72 168.72 20.92 175.92 30.2C183.12 39.32 186.72 49.96 186.72 62.12C186.72 71.56 184 80.36 178.56 88.52C173.12 96.68 164.8 104.52 153.6 112.04C142.4 119.56 128 127 110.4 134.36L67.92 152.12L67.44 137H191.28V185H6V142.76L83.76 101.24C94.96 95.32 103.52 90.44 109.44 86.6C115.36 82.76 119.44 79.32 121.68 76.28C124.08 73.08 125.28 69.64 125.28 65.96C125.28 61.96 124.16 58.6 121.92 55.88C119.84 53.16 116.72 51.08 112.56 49.64C108.4 48.04 103.44 47.24 97.68 47.24C89.68 47.24 83.12 48.36 78 50.6C73.04 52.84 69.28 55.8 66.72 59.48C64.16 63.16 62.64 67.24 62.16 71.72H0.72Z"/>
</mask>
<path d="M0.72 71.72L-11.2454 70.8096L-12.2277 83.72H0.72V71.72ZM15.6 33.8L24.8187 41.4822L24.847 41.4482L24.8751 41.4139L15.6 33.8ZM50.64 9.31999L54.9478 20.5201L54.9803 20.5076L55.0128 20.4949L50.64 9.31999ZM145.68 8.6L141.152 19.7131L141.212 19.7372L141.271 19.7606L145.68 8.6ZM175.92 30.2L166.439 37.556L166.47 37.596L166.501 37.6357L175.92 30.2ZM178.56 88.52L188.545 95.1764V95.1764L178.56 88.52ZM153.6 112.04L146.911 102.077V102.077L153.6 112.04ZM110.4 134.36L115.029 145.431L115.03 145.431L110.4 134.36ZM67.92 152.12L55.926 152.501L56.4787 169.91L72.5487 163.191L67.92 152.12ZM67.44 137V125H55.053L55.446 137.381L67.44 137ZM191.28 137H203.28V125H191.28V137ZM191.28 185V197H203.28V185H191.28ZM6 185H-6V197H6V185ZM6 142.76L0.347855 132.174L-6 135.564V142.76H6ZM83.76 101.24L78.1523 90.6309L78.1301 90.6426L78.1079 90.6545L83.76 101.24ZM109.44 86.6L102.91 76.5325L109.44 86.6ZM121.68 76.28L112.08 69.08L112.049 69.1207L112.019 69.1616L121.68 76.28ZM121.92 55.88L112.388 63.1694L112.519 63.3414L112.657 63.5085L121.92 55.88ZM112.56 49.64L108.252 60.8401L108.442 60.9132L108.635 60.9798L112.56 49.64ZM78 50.6L73.1902 39.6061L73.1254 39.6344L73.061 39.6636L78 50.6ZM66.72 59.48L76.5709 66.3328L66.72 59.48ZM62.16 71.72V83.72H72.943L74.0917 72.9984L62.16 71.72ZM12.6854 72.6304C13.6309 60.204 17.7364 49.9809 24.8187 41.4822L6.38134 26.1178C-4.13637 38.739 -9.9509 53.7959 -11.2454 70.8096L12.6854 72.6304ZM24.8751 41.4139C32.1995 32.4915 42.0795 25.4695 54.9478 20.5201L46.3323 -1.88016C30.0805 4.37052 16.6005 13.6685 6.32486 26.1861L24.8751 41.4139ZM55.0128 20.4949C68.1422 15.3573 83.1089 12.68 100.08 12.68V-11.32C80.5711 -11.32 62.5778 -8.23731 46.2672 -1.85493L55.0128 20.4949ZM100.08 12.68C116.337 12.68 129.936 15.1436 141.152 19.7131L150.208 -2.51311C135.504 -8.50363 118.703 -11.32 100.08 -11.32V12.68ZM141.271 19.7606C152.605 24.2384 160.785 30.2689 166.439 37.556L185.401 22.844C176.655 11.5711 164.675 3.2016 150.089 -2.56063L141.271 19.7606ZM166.501 37.6357C171.948 44.5342 174.72 52.5232 174.72 62.12H198.72C198.72 47.3968 194.292 34.1058 185.339 22.7643L166.501 37.6357ZM174.72 62.12C174.72 69.0953 172.755 75.5937 168.575 81.8636L188.545 95.1764C195.245 85.1263 198.72 74.0247 198.72 62.12H174.72ZM168.575 81.8636C164.268 88.3248 157.264 95.1257 146.911 102.077L160.289 122.003C172.336 113.914 181.972 105.035 188.545 95.1764L168.575 81.8636ZM146.911 102.077C136.565 109.024 122.92 116.117 105.77 123.289L115.03 145.431C133.08 137.883 148.236 130.096 160.289 122.003L146.911 102.077ZM105.771 123.289L63.2913 141.049L72.5487 163.191L115.029 145.431L105.771 123.289ZM79.914 151.739L79.434 136.619L55.446 137.381L55.926 152.501L79.914 151.739ZM67.44 149H191.28V125H67.44V149ZM179.28 137V185H203.28V137H179.28ZM191.28 173H6V197H191.28V173ZM18 185V142.76H-6V185H18ZM11.6521 153.346L89.4121 111.826L78.1079 90.6545L0.347855 132.174L11.6521 153.346ZM89.3677 111.849C100.678 105.871 109.605 100.797 115.97 96.6675L102.91 76.5325C97.4353 80.0834 89.2422 84.7691 78.1523 90.6309L89.3677 111.849ZM115.97 96.6675C122.238 92.6022 127.792 88.2139 131.341 83.3984L112.019 69.1616C111.088 70.4261 108.482 72.9178 102.91 76.5325L115.97 96.6675ZM131.28 83.48C135.094 78.3941 137.28 72.4658 137.28 65.96H113.28C113.28 66.8142 113.066 67.7659 112.08 69.08L131.28 83.48ZM137.28 65.96C137.28 59.575 135.43 53.4086 131.183 48.2515L112.657 63.5085C112.89 63.7914 113.28 64.345 113.28 65.96H137.28ZM131.452 48.5906C127.584 43.5317 122.241 40.2924 116.485 38.3002L108.635 60.9798C111.199 61.8675 112.096 62.7883 112.388 63.1694L131.452 48.5906ZM116.868 38.4398C110.996 36.1817 104.503 35.24 97.68 35.24V59.24C102.377 59.24 105.804 59.8983 108.252 60.8401L116.868 38.4398ZM97.68 35.24C88.6847 35.24 80.3331 36.4811 73.1902 39.6061L82.8098 61.5939C85.9069 60.2389 90.6754 59.24 97.68 59.24V35.24ZM73.061 39.6636C66.548 42.6049 60.9081 46.8212 56.8691 52.6272L76.5709 66.3328C77.6519 64.7788 79.532 63.0751 82.939 61.5364L73.061 39.6636ZM56.8691 52.6272C53.1524 57.97 50.9218 63.9689 50.2283 70.4416L74.0917 72.9984C74.3582 70.5111 75.1676 68.35 76.5709 66.3328L56.8691 52.6272ZM62.16 59.72H0.72V83.72H62.16V59.72Z" fill="#00AEEF" mask="url(#path-1-outside-1_630_30838)"/>
</g>
</svg>
