<svg width="193" height="190" viewBox="0 0 193 190" fill="none" xmlns="http://www.w3.org/2000/svg">
<g opacity="0.15">
<mask id="path-1-outside-1_630_30839" maskUnits="userSpaceOnUse" x="-13" y="-12" width="218" height="214" fill="black">
<rect fill="white" x="-13" y="-12" width="218" height="214"/>
<path d="M4.84 65C5.48 53.32 9.48 42.68 16.84 33.08C24.36 23.32 35.24 15.48 49.48 9.56C63.88 3.64 81.48 0.679998 102.28 0.679998C119.72 0.679998 134.92 2.83999 147.88 7.15999C160.84 11.48 170.92 17.48 178.12 25.16C185.32 32.84 188.92 41.8 188.92 52.04C188.92 60.04 186.44 67.4 181.48 74.12C176.68 80.84 168.84 86.2 157.96 90.2C147.08 94.04 132.68 95.88 114.76 95.72V90.44C131.08 89.64 145 90.6 156.52 93.32C168.2 96.04 177.16 100.6 183.4 107C189.64 113.4 192.76 121.8 192.76 132.2C192.76 143.24 189.08 153.08 181.72 161.72C174.36 170.2 163.64 176.92 149.56 181.88C135.48 186.84 118.36 189.32 98.2 189.32C78.68 189.32 61.64 186.68 47.08 181.4C32.52 176.12 21.16 168.6 13 158.84C5 149.08 0.76 137.56 0.28 124.28H61.72C62.68 130.2 65.96 134.76 71.56 137.96C77.32 141.16 86.2 142.76 98.2 142.76C108.12 142.76 115.88 141.48 121.48 138.92C127.08 136.2 129.88 132.36 129.88 127.4C129.88 124.52 129 122.12 127.24 120.2C125.64 118.28 122.52 116.92 117.88 116.12C113.4 115.16 106.92 114.68 98.44 114.68H68.68V74.6H98.44C109.64 74.6 117.16 73.4 121 71C125 68.6 127 65.32 127 61.16C127 56.52 124.52 53.08 119.56 50.84C114.76 48.44 107.88 47.24 98.92 47.24C88.52 47.24 80.68 48.84 75.4 52.04C70.28 55.08 67.24 59.4 66.28 65H4.84Z"/>
</mask>
<path d="M4.84 65L-7.14203 64.3435L-7.83554 77H4.84V65ZM16.84 33.08L7.33431 25.7559L7.3255 25.7674L7.31672 25.7788L16.84 33.08ZM49.48 9.56L44.9172 -1.53869L44.8953 -1.52969L44.8735 -1.5206L49.48 9.56ZM147.88 7.15999L151.675 -4.22421L151.675 -4.22421L147.88 7.15999ZM178.12 25.16L169.366 33.3673V33.3673L178.12 25.16ZM181.48 74.12L171.825 66.9938L171.77 67.069L171.715 67.1451L181.48 74.12ZM157.96 90.2L161.954 101.516L162.027 101.49L162.101 101.463L157.96 90.2ZM114.76 95.72H102.76V107.613L114.653 107.72L114.76 95.72ZM114.76 90.44L114.172 78.4544L102.76 79.0138V90.44H114.76ZM156.52 93.32L153.762 104.999L153.78 105.003L153.798 105.007L156.52 93.32ZM183.4 107L174.808 115.377L174.808 115.377L183.4 107ZM181.72 161.72L190.783 169.586L190.819 169.544L190.855 169.502L181.72 161.72ZM149.56 181.88L153.547 193.198L149.56 181.88ZM47.08 181.4L42.989 192.681L47.08 181.4ZM13 158.84L3.7193 166.447L3.75629 166.492L3.79373 166.537L13 158.84ZM0.28 124.28V112.28H-12.1616L-11.7122 124.713L0.28 124.28ZM61.72 124.28L73.5653 122.359L71.9308 112.28H61.72V124.28ZM71.56 137.96L65.6063 148.379L65.6691 148.415L65.7323 148.45L71.56 137.96ZM121.48 138.92L126.469 149.834L126.597 149.775L126.723 149.714L121.48 138.92ZM127.24 120.2L118.021 127.882L118.203 128.1L118.394 128.309L127.24 120.2ZM117.88 116.12L115.366 127.854L115.602 127.904L115.841 127.946L117.88 116.12ZM68.68 114.68H56.68V126.68H68.68V114.68ZM68.68 74.6V62.6H56.68V74.6H68.68ZM121 71L114.826 60.7101L114.733 60.7662L114.64 60.824L121 71ZM119.56 50.84L114.193 61.5731L114.405 61.679L114.621 61.7764L119.56 50.84ZM75.4 52.04L81.5265 62.3583L81.5732 62.3305L81.6196 62.3024L75.4 52.04ZM66.28 65V77H76.3979L78.1075 67.0276L66.28 65ZM16.822 65.6565C17.3252 56.4743 20.4197 48.1337 26.3633 40.3812L7.31672 25.7788C-1.45967 37.2263 -6.36516 50.1656 -7.14203 64.3435L16.822 65.6565ZM26.3457 40.4041C32.3045 32.6703 41.2992 25.9567 54.0865 20.6406L44.8735 -1.5206C29.1808 5.00332 16.4155 13.9697 7.33431 25.7559L26.3457 40.4041ZM54.0428 20.6587C66.5976 15.4973 82.5487 12.68 102.28 12.68V-11.32C80.4113 -11.32 61.1624 -8.21726 44.9172 -1.53869L54.0428 20.6587ZM102.28 12.68C118.769 12.68 132.634 14.727 144.085 18.5442L151.675 -4.22421C137.206 -9.04698 120.671 -11.32 102.28 -11.32V12.68ZM144.085 18.5442C155.7 22.4159 163.875 27.511 169.366 33.3673L186.874 16.9527C177.965 7.449 165.98 0.544111 151.675 -4.22421L144.085 18.5442ZM169.366 33.3673C174.545 38.8923 176.92 44.9422 176.92 52.04H200.92C200.92 38.6578 196.095 26.7877 186.874 16.9527L169.366 33.3673ZM176.92 52.04C176.92 57.3569 175.334 62.2404 171.825 66.9938L191.135 81.2462C197.546 72.5596 200.92 62.7231 200.92 52.04H176.92ZM171.715 67.1451C168.778 71.2577 163.317 75.4451 153.819 78.9371L162.101 101.463C174.363 96.9549 184.582 90.4223 191.245 81.0948L171.715 67.1451ZM153.966 78.8841C144.923 82.0757 132.076 83.8741 114.867 83.7205L114.653 107.72C133.284 107.886 149.237 106.004 161.954 101.516L153.966 78.8841ZM126.76 95.72V90.44H102.76V95.72H126.76ZM115.348 102.426C130.937 101.661 143.664 102.615 153.762 104.999L159.278 81.6411C146.336 78.5854 131.223 77.6186 114.172 78.4544L115.348 102.426ZM153.798 105.007C163.988 107.38 170.629 111.091 174.808 115.377L191.992 98.6228C183.691 90.1094 172.412 84.6997 159.242 81.6327L153.798 105.007ZM174.808 115.377C178.506 119.17 180.76 124.379 180.76 132.2H204.76C204.76 119.221 200.774 107.63 191.992 98.6228L174.808 115.377ZM180.76 132.2C180.76 140.302 178.152 147.403 172.585 153.938L190.855 169.502C200.008 158.757 204.76 146.178 204.76 132.2H180.76ZM172.657 153.854C167.038 160.329 158.315 166.073 145.573 170.562L153.547 193.198C168.965 187.767 181.682 180.071 190.783 169.586L172.657 153.854ZM145.573 170.562C133.135 174.943 117.447 177.32 98.2 177.32V201.32C119.273 201.32 137.825 198.737 153.547 193.198L145.573 170.562ZM98.2 177.32C79.7274 177.32 64.1282 174.818 51.171 170.119L42.989 192.681C59.1518 198.542 77.6326 201.32 98.2 201.32V177.32ZM51.171 170.119C38.1708 165.405 28.7404 158.958 22.2063 151.143L3.79373 166.537C13.5796 178.242 26.8692 186.835 42.989 192.681L51.171 170.119ZM22.2807 151.233C16.0369 143.615 12.6627 134.652 12.2722 123.847L-11.7122 124.713C-11.1427 140.468 -6.03686 154.545 3.7193 166.447L22.2807 151.233ZM0.28 136.28H61.72V112.28H0.28V136.28ZM49.8747 126.201C51.4631 135.996 57.1321 143.536 65.6063 148.379L77.5137 127.541C74.7879 125.983 73.8969 124.404 73.5653 122.359L49.8747 126.201ZM65.7323 148.45C74.2037 153.156 85.5844 154.76 98.2 154.76V130.76C86.8156 130.76 80.4363 129.164 77.3877 127.47L65.7323 148.45ZM98.2 154.76C108.911 154.76 118.634 153.415 126.469 149.834L116.491 128.006C113.126 129.545 107.329 130.76 98.2 130.76V154.76ZM126.723 149.714C135.189 145.602 141.88 138.213 141.88 127.4H117.88C117.88 127.497 117.869 127.432 117.92 127.272C117.973 127.106 118.046 126.982 118.084 126.93C118.144 126.847 117.8 127.367 116.237 128.126L126.723 149.714ZM141.88 127.4C141.88 121.861 140.095 116.465 136.086 112.091L118.394 128.309C118.326 128.235 118.241 128.127 118.156 127.987C118.07 127.848 118.002 127.705 117.953 127.571C117.851 127.291 117.88 127.192 117.88 127.4H141.88ZM136.459 112.518C131.997 107.164 125.197 105.205 119.919 104.294L115.841 127.946C117.546 128.239 118.491 128.56 118.905 128.74C119.34 128.93 118.77 128.78 118.021 127.882L136.459 112.518ZM120.394 104.386C114.665 103.159 107.181 102.68 98.44 102.68V126.68C106.659 126.68 112.135 127.161 115.366 127.854L120.394 104.386ZM98.44 102.68H68.68V126.68H98.44V102.68ZM80.68 114.68V74.6H56.68V114.68H80.68ZM68.68 86.6H98.44V62.6H68.68V86.6ZM98.44 86.6C104.408 86.6 109.769 86.2844 114.371 85.5501C118.782 84.8462 123.455 83.6167 127.36 81.176L114.64 60.824C114.705 60.7833 113.698 61.3538 110.589 61.8499C107.671 62.3156 103.672 62.6 98.44 62.6V86.6ZM127.174 81.2899C134.264 77.0362 139 70.1133 139 61.16H115C115 61.2315 114.992 61.1633 115.036 60.9998C115.082 60.8302 115.158 60.6502 115.254 60.4927C115.348 60.3401 115.412 60.2862 115.375 60.3205C115.333 60.3605 115.173 60.5018 114.826 60.7101L127.174 81.2899ZM139 61.16C139 56.5705 137.727 52.0393 134.874 48.0824C132.105 44.2417 128.362 41.648 124.499 39.9036L114.621 61.7764C115.718 62.272 115.695 62.5183 115.406 62.1176C115.262 61.9185 115.139 61.6731 115.063 61.426C114.991 61.1893 115 61.0774 115 61.16H139ZM124.927 40.1069C117.7 36.4936 108.649 35.24 98.92 35.24V59.24C107.111 59.24 111.82 60.3864 114.193 61.5731L124.927 40.1069ZM98.92 35.24C87.6577 35.24 77.2168 36.9071 69.1804 41.7776L81.6196 62.3024C84.1432 60.7729 89.3823 59.24 98.92 59.24V35.24ZM69.2735 41.7217C61.2964 46.4582 56.0384 53.7213 54.4525 62.9724L78.1075 67.0276C78.4416 65.0787 79.2636 63.7018 81.5265 62.3583L69.2735 41.7217ZM66.28 53H4.84V77H66.28V53Z" fill="#00AEEF" mask="url(#path-1-outside-1_630_30839)"/>
</g>
</svg>
