<svg width="100" height="100" viewBox="0 0 100 100" fill="none" xmlns="http://www.w3.org/2000/svg">
<path d="M99.8983 15.5676C99.8983 14.7786 99.8252 14.0586 99.0697 13.6266C98.285 13.1799 97.5795 13.47 96.8824 13.8958C94.9728 15.0604 92.9587 16.081 91.1576 17.3958C89.1623 18.8526 87.0272 18.214 84.8755 18.3559C84.9005 16.4087 84.2681 14.7953 83.1995 13.3594C82.1122 11.9006 80.6115 10.9697 78.8646 10.3832C79.0003 10.1286 79.0754 9.98878 79.1485 9.84686C80.5656 7.10026 80.0835 4.07399 77.9129 1.87838C76.955 0.907882 75.7152 0.490465 74.5047 0H71.9647C71.9376 0.162793 71.8082 0.166967 71.6809 0.198273C67.8177 1.2126 65.6951 5.06535 66.9161 8.83671C67.0371 9.21239 67.3773 9.52754 67.2834 10.0264H63.0633C63.535 7.06478 62.6918 5.06535 60.5651 3.9592C58.6366 2.95531 56.272 3.32055 54.7317 4.86082C53.9219 5.67061 53.4502 6.65362 53.2874 7.77647C53.0537 9.38562 53.6902 10.7401 54.667 11.9799C53.3 13.1591 52.342 14.5303 51.91 16.2125C51.7659 16.7739 51.4174 16.7134 51.0334 16.7134C49.1467 16.7155 47.2599 16.6967 45.3732 16.7196C43.7411 16.7405 43.0941 17.5419 43.3112 19.1532C43.57 21.0503 43.8121 22.9517 44.0479 24.853C44.1919 26.0301 44.9433 26.7961 45.8971 26.7042C46.9427 26.6061 47.5083 25.7901 47.381 24.4982C47.2391 23.056 47.0596 21.6201 46.8947 20.1591H51.5155V30.0519C49.946 30.0519 48.4517 30.0436 46.9573 30.0561C45.6946 30.0665 44.9725 30.6655 44.9516 31.6861C44.9307 32.7484 45.6821 33.3892 46.9803 33.3954C48.5685 33.4017 50.1568 33.3975 51.743 33.3975C51.862 33.7795 51.9559 34.0842 52.0498 34.391C52.9806 37.4089 56.0591 39.951 59.1981 39.9969C65.1817 40.0825 71.1696 40.0971 77.1532 39.999C80.8766 39.9364 84.2118 36.8036 84.8087 33.1283C84.8796 32.6921 84.7252 32.2162 85.0341 31.7612C86.0567 31.7612 87.0982 31.8051 88.1334 31.7487C89.0496 31.7007 89.8239 31.9324 90.6024 32.4208C92.6895 33.7315 94.8225 34.9691 96.9284 36.2485C97.5962 36.6534 98.2578 36.9393 99.0217 36.5135C99.7856 36.0899 99.8983 35.3969 99.8983 34.6018C99.8837 28.257 99.8837 21.9123 99.8983 15.5676ZM58.2463 10.0034C57.3489 9.99505 56.6685 9.31257 56.6664 8.41095C56.6622 7.50515 57.3322 6.82059 58.238 6.81016C59.1584 6.79972 59.8471 7.4488 59.8722 8.35251C59.9014 9.29796 59.1981 10.0097 58.2463 10.0034ZM73.2003 3.47291C75.0515 3.45412 76.4854 4.83577 76.5229 6.66823C76.5584 8.5487 75.1246 10.0138 73.2483 10.0159C71.4096 10.0159 69.9862 8.60087 69.9778 6.76633C69.9716 4.91717 71.3658 3.4896 73.2003 3.47291ZM78.2156 25.2475C78.1154 27.9607 76.0387 30.0039 73.3318 30.0624C71.7059 30.0978 70.078 30.0686 68.4522 30.0686C68.4522 30.0707 68.4522 30.0707 68.4522 30.0728C66.8263 30.0728 65.1984 30.0811 63.5726 30.0707C62.3329 30.0603 61.6107 29.4362 61.6066 28.401C61.6024 27.3533 62.2932 26.7355 63.5538 26.7293C66.5467 26.7147 69.5396 26.7272 72.5324 26.7251C74.3586 26.7209 74.895 26.1741 74.8971 24.325C74.8971 23.5757 74.9075 22.8285 74.895 22.0793C74.8721 20.7227 74.2731 20.1091 72.9311 20.1049C69.8401 20.0944 66.7491 20.107 63.6602 20.0986C62.4456 20.0944 61.7067 19.533 61.617 18.5917C61.5293 17.6609 62.0574 16.897 62.9924 16.7989C63.9253 16.7008 64.8749 16.7155 65.8162 16.7196C68.4814 16.7322 71.1508 16.6904 73.8118 16.8094C76.1807 16.9179 78.1049 18.9737 78.2051 21.3467C78.2615 22.6449 78.2636 23.9493 78.2156 25.2475Z" fill="#F9F7F3"/>
<path d="M43.2214 37.745C43.1797 35.4701 42.1007 33.5813 40.3767 32.0828C38.8532 30.7596 37.0562 30.123 35.0296 30.0312C35.0004 29.0043 35.0359 28.0234 34.7854 27.08C34.1364 24.6298 31.8364 23.1459 29.192 23.4464C26.9192 23.7052 25.0784 25.8007 24.9365 28.3093C24.9052 28.877 24.9323 29.4489 24.9323 30.052H23.7176C18.4811 30.0604 13.2405 30.0061 8.00397 30.1001C4.86917 30.1564 2.55668 31.7384 0.985108 34.4537C0.528036 35.2426 0.375679 36.1213 0.106445 36.9624V52.9119C0.106445 52.9181 0.108532 52.9265 0.108532 52.9328C0.277586 54.3499 0.839012 55.6126 1.70098 56.7354C3.52091 59.1084 6.00246 60.0727 8.92646 60.0706C13.2864 60.0664 17.6463 60.0956 22.0062 60.0622C26.5936 60.0288 31.181 60.225 35.7643 59.9537C39.6463 59.7241 43.1212 56.2992 43.2173 52.388C43.3362 47.5105 43.307 42.6246 43.2214 37.745ZM8.36295 53.346C7.4342 53.3669 6.67032 52.6593 6.63693 51.7473C6.60771 50.8832 7.39454 50.0505 8.26903 50.0213C9.12891 49.99 9.97627 50.7872 10.0076 51.6555C10.0389 52.5341 9.26666 53.3272 8.36295 53.346ZM24.4439 52.8889C23.5444 53.1874 22.6303 53.3815 22.1481 53.3606C17.1433 53.4023 13.5807 49.9315 13.3156 45.221C13.0798 41.0113 16.5902 37.1043 20.9272 36.7432C21.6577 36.6827 22.3777 36.6598 22.8953 37.3026C23.2814 37.7847 23.4547 38.3211 23.2 38.9368C22.9266 39.5942 22.4591 39.9824 21.7349 40.0408C20.2322 40.1598 18.8881 40.6169 17.878 41.819C16.5026 43.4574 16.2897 45.6822 17.352 47.5356C18.3663 49.3054 20.5536 50.3281 22.4925 49.9399C24.6693 49.5016 26.1992 47.9029 26.5143 45.7407C26.5561 45.4506 26.6082 45.1625 26.6583 44.8745C26.819 43.9416 27.5286 43.3238 28.3823 43.3718C29.2797 43.4198 29.9497 44.1649 29.9726 45.1438C30.0519 48.3913 27.5787 51.8496 24.4439 52.8889ZM31.5734 30.0061H28.3322C28.4407 28.9355 27.9753 27.7917 29.096 27.0341C29.6616 26.6522 30.2648 26.6564 30.8325 27.0425C31.9574 27.8063 31.4753 28.9438 31.5734 30.0061Z" fill="#F9F7F3"/>
<path d="M84.911 72.7473C84.9089 74.801 83.9426 75.4522 82.0496 74.6967C77.0051 72.6764 71.9606 70.6602 66.9203 68.6337C66.4278 68.4354 65.9394 68.3478 65.4113 68.3498C61.9948 68.3645 58.5803 68.3624 55.1658 68.3561C53.0308 68.3519 51.6971 67.0955 51.6032 64.9562C51.5552 63.8856 51.5635 62.8086 51.6136 61.738C51.6616 60.7195 52.3504 60.0307 53.2374 60.0057C54.1494 59.9827 54.9133 60.7278 54.955 61.7714C54.9947 62.8086 54.9634 63.8501 54.9634 64.9896H64.8583V55.1574C64.5932 54.9633 64.2572 55.0718 63.9483 55.0718C61.0222 55.0614 58.094 55.076 55.1679 55.0593C54.1307 55.053 53.4732 54.5626 53.3042 53.6818C53.1539 52.8929 53.4837 52.2918 54.1766 51.8994C54.6211 51.6469 55.1178 51.6887 55.6 51.6887C58.8203 51.6845 62.0386 51.674 65.259 51.6949C65.9227 51.6991 66.5384 51.5843 67.1499 51.338C72.0984 49.3469 77.0677 47.3997 81.9974 45.3585C83.6191 44.6886 84.9569 45.2416 84.9402 47.3746C84.8713 55.8315 84.9151 64.2884 84.911 72.7473Z" fill="#F9F7F3"/>
<path d="M50.0029 99.9963C43.9524 99.9963 37.8999 100.007 31.8494 99.9922C27.6878 99.9838 24.53 97.4939 23.499 93.47C23.3112 92.7333 23.3028 91.9861 23.3028 91.2431C23.2903 82.6861 23.2924 74.1269 23.3007 65.5699C23.3007 65.1546 23.307 64.7017 23.4614 64.3281C23.7328 63.6727 24.3338 63.3263 25.0163 63.3534C25.6445 63.3785 26.1913 63.6915 26.4773 64.3302C26.6735 64.7664 26.6568 65.2172 26.6568 65.6701C26.6568 74.1624 26.6547 82.6548 26.6568 91.1492C26.6568 94.6012 28.7063 96.657 32.1708 96.6591C44.013 96.6654 55.8551 96.6424 67.6972 96.6737C70.9864 96.6821 73.2906 94.4802 73.2217 91.1534C73.1299 86.5994 73.1966 82.0432 73.1987 77.4871C73.1987 75.8446 73.7664 75.016 74.8934 75.0056C76.0226 74.9931 76.6215 75.8383 76.6215 77.4537C76.6215 82.0412 76.6403 86.6307 76.6153 91.2181C76.5986 94.0607 75.6197 96.4838 73.3093 98.262C71.7628 99.4537 70.0013 99.9984 68.0541 99.9963C62.0391 99.9922 56.022 99.9963 50.0029 99.9963Z" fill="#F9F7F3"/>
<path d="M54.0931 76.7273C50.161 76.7273 46.229 76.7253 42.2969 76.7294C41.8732 76.7294 41.4516 76.7273 41.0509 76.5687C40.2996 76.2724 39.9093 75.7088 39.9594 74.9116C40.0074 74.1623 40.4123 73.6259 41.1594 73.4423C41.5643 73.3442 41.9922 73.3087 42.4096 73.3087C50.209 73.3004 58.0085 73.3024 65.8079 73.3024C65.906 73.3024 66.002 73.3004 66.1001 73.3024C67.4817 73.3379 68.2561 73.9557 68.2519 75.0222C68.2477 76.0887 67.463 76.7211 66.0855 76.7232C62.0887 76.7315 58.092 76.7273 54.0931 76.7273Z" fill="#F9F7F3"/>
<path d="M58.2966 46.7068C55.0115 46.7089 51.7265 46.7047 48.4414 46.711C47.6483 46.7131 47.0681 46.4 46.7362 45.6654C46.4482 45.0246 46.6048 44.4486 47.0347 43.9435C47.3895 43.5261 47.8716 43.3591 48.4247 43.3591C54.9948 43.3633 61.565 43.355 68.1351 43.3696C69.1954 43.3717 69.9383 44.1021 69.9446 45.033C69.9509 45.9555 69.2141 46.6901 68.1518 46.6964C64.8667 46.7193 61.5817 46.7047 58.2966 46.7068Z" fill="#F9F7F3"/>
<path d="M40.0245 65.0252C42.1032 65.0252 44.1819 65.0189 46.2607 65.0273C47.5254 65.0335 48.3436 65.7306 48.3039 66.7387C48.2643 67.73 47.49 68.3541 46.2607 68.3562C42.0385 68.3603 37.8163 68.3624 33.5942 68.3562C32.3962 68.3541 31.5947 67.6737 31.5947 66.6928C31.5947 65.7118 32.3899 65.0356 33.5942 65.0294C35.7376 65.0168 37.881 65.0252 40.0245 65.0252Z" fill="#F9F7F3"/>
<path d="M40.0411 85.0173C37.9289 85.0173 35.8168 85.0277 33.7047 85.0131C32.3982 85.0026 31.6134 84.3682 31.5988 83.3601C31.5842 82.3207 32.4211 81.6529 33.7673 81.6508C37.9269 81.6466 42.0843 81.6529 46.2439 81.6466C47.0057 81.6445 47.6631 81.8386 48.0617 82.542C48.3727 83.093 48.356 83.6544 48.0283 84.2012C47.6297 84.8691 46.9932 85.0214 46.2773 85.0193C44.2006 85.0131 42.1219 85.0152 40.0411 85.0173Z" fill="#F9F7F3"/>
<path d="M60.7421 85.0175C58.9555 85.0175 57.1711 85.0279 55.3845 85.0133C54.0216 85.0029 53.2098 84.3371 53.2453 83.2998C53.2787 82.2855 54.0822 81.651 55.3762 81.649C59.0119 81.6427 62.6476 81.651 66.2854 81.6448C67.0993 81.6427 67.7526 81.914 68.1116 82.68C68.4017 83.2978 68.2785 83.8863 67.8632 84.4123C67.4374 84.9528 66.8259 85.0175 66.1956 85.0175C64.3778 85.0175 62.5599 85.0175 60.7421 85.0175Z" fill="#F9F7F3"/>
<path d="M38.3841 88.2962C39.9431 88.2962 41.5001 88.2837 43.0591 88.3024C43.775 88.3108 44.4053 88.5571 44.7559 89.2375C45.0627 89.8323 45.0085 90.4167 44.6245 90.9739C44.23 91.5458 43.6331 91.694 43.0091 91.6981C39.8596 91.7148 36.7102 91.7274 33.5629 91.694C32.3587 91.6814 31.5802 90.9363 31.599 89.9763C31.6198 88.9995 32.4129 88.315 33.613 88.3004C35.2034 88.2816 36.7937 88.2962 38.3841 88.2962Z" fill="#F9F7F3"/>
<path d="M56.6022 88.2982C58.1925 88.2982 59.7829 88.2774 61.3733 88.3066C62.2436 88.3233 62.9594 88.6551 63.1849 89.6006C63.3706 90.3791 63.1202 91.0031 62.4335 91.4309C62.0328 91.6814 61.5757 91.7044 61.1228 91.7044C58.1049 91.7106 55.087 91.719 52.069 91.7023C50.8084 91.696 50.1281 91.2076 49.9507 90.2664C49.7545 89.2291 50.581 88.3316 51.8311 88.3045C53.4215 88.2711 55.0118 88.2982 56.6022 88.2982Z" fill="#F9F7F3"/>
<path d="M94.9833 56.658C95.9914 56.658 97.0015 56.633 98.0075 56.6643C99.1533 56.6998 99.8796 57.3781 99.8838 58.3548C99.888 59.3149 99.2535 60.0078 98.1223 60.0391C95.9768 60.0976 93.8292 60.0996 91.6836 60.0433C90.5065 60.012 89.8762 59.2961 89.918 58.2734C89.9555 57.3405 90.6589 56.6998 91.7629 56.6643C92.8357 56.633 93.9106 56.658 94.9833 56.658Z" fill="#F9F7F3"/>
<path d="M89.8199 66.6824C90.277 66.6907 90.6443 66.8285 90.9699 67.0455C92.5665 68.1016 94.1715 69.1493 95.741 70.2429C96.6259 70.8607 96.8116 71.8375 96.2815 72.6201C95.7577 73.3944 94.7725 73.599 93.8668 73.0188C92.2284 71.969 90.6109 70.8795 89.0122 69.7713C88.3485 69.31 88.0313 68.6755 88.3339 67.8261C88.601 67.0831 89.1437 66.77 89.8199 66.6824Z" fill="#F9F7F3"/>
<path d="M89.9675 51.743C89.2183 51.6596 88.6506 51.3695 88.348 50.6515C88.0391 49.9148 88.2123 49.2281 88.8009 48.8107C90.5478 47.573 92.3301 46.3813 94.1501 45.2543C94.8931 44.7951 95.6966 45.0038 96.2267 45.726C96.7464 46.4377 96.7694 47.2767 96.0723 47.8318C94.2962 49.2469 92.3865 50.4804 90.4184 51.6157C90.2806 51.6971 90.1074 51.7076 89.9675 51.743Z" fill="#F9F7F3"/>
</svg>
