<svg width="100" height="100" viewBox="0 0 100 100" fill="none" xmlns="http://www.w3.org/2000/svg">
<path d="M99.8982 15.5676C99.8982 14.7786 99.8251 14.0586 99.0696 13.6266C98.2848 13.1799 97.5794 13.47 96.8823 13.8958C94.9726 15.0604 92.9586 16.081 91.1575 17.3958C89.1622 18.8526 87.0271 18.214 84.8753 18.3559C84.9004 16.4087 84.268 14.7953 83.1994 13.3594C82.112 11.9006 80.6114 10.9697 78.8645 10.3832C79.0002 10.1286 79.0753 9.98878 79.1484 9.84686C80.5655 7.10026 80.0834 4.07399 77.9128 1.87838C76.9548 0.907882 75.7151 0.490465 74.5046 0H71.9646C71.9375 0.162793 71.8081 0.166967 71.6808 0.198273C67.8176 1.2126 65.695 5.06535 66.916 8.83671C67.037 9.21239 67.3772 9.52754 67.2833 10.0264H63.0632C63.5349 7.06478 62.6917 5.06535 60.565 3.9592C58.6365 2.95531 56.2718 3.32055 54.7316 4.86082C53.9218 5.67061 53.4501 6.65362 53.2873 7.77647C53.0536 9.38562 53.6901 10.7401 54.6669 11.9799C53.2998 13.1591 52.3419 14.5303 51.9098 16.2125C51.7658 16.7739 51.4173 16.7134 51.0333 16.7134C49.1465 16.7155 47.2598 16.6967 45.3731 16.7196C43.741 16.7405 43.094 17.5419 43.311 19.1532C43.5698 21.0503 43.8119 22.9517 44.0478 24.853C44.1918 26.0301 44.9431 26.7961 45.8969 26.7042C46.9426 26.6061 47.5082 25.7901 47.3809 24.4982C47.2389 23.056 47.0594 21.6201 46.8946 20.1591H51.5154V30.0519C49.9459 30.0519 48.4515 30.0436 46.9572 30.0561C45.6945 30.0665 44.9724 30.6655 44.9515 31.6861C44.9306 32.7484 45.682 33.3892 46.9801 33.3954C48.5684 33.4017 50.1567 33.3975 51.7429 33.3975C51.8618 33.7795 51.9557 34.0842 52.0497 34.391C52.9805 37.4089 56.059 39.951 59.1979 39.9969C65.1816 40.0825 71.1694 40.0971 77.1531 39.999C80.8765 39.9364 84.2116 36.8036 84.8085 33.1283C84.8795 32.6921 84.7251 32.2162 85.0339 31.7612C86.0566 31.7612 87.0981 31.8051 88.1333 31.7487C89.0495 31.7007 89.8238 31.9324 90.6023 32.4208C92.6894 33.7315 94.8224 34.9691 96.9282 36.2485C97.5961 36.6534 98.2577 36.9393 99.0216 36.5135C99.7855 36.0899 99.8982 35.3969 99.8982 34.6018C99.8836 28.257 99.8836 21.9123 99.8982 15.5676ZM58.2462 10.0034C57.3488 9.99505 56.6684 9.31257 56.6663 8.41095C56.6621 7.50515 57.3321 6.82059 58.2379 6.81016C59.1583 6.79972 59.847 7.4488 59.8721 8.35251C59.9013 9.29796 59.1979 10.0097 58.2462 10.0034ZM73.2002 3.47291C75.0514 3.45412 76.4853 4.83577 76.5228 6.66823C76.5583 8.5487 75.1245 10.0138 73.2482 10.0159C71.4095 10.0159 69.9861 8.60087 69.9777 6.76633C69.9715 4.91717 71.3656 3.4896 73.2002 3.47291ZM78.2154 25.2475C78.1153 27.9607 76.0386 30.0039 73.3317 30.0624C71.7058 30.0978 70.0779 30.0686 68.4521 30.0686C68.4521 30.0707 68.4521 30.0707 68.4521 30.0728C66.8262 30.0728 65.1983 30.0811 63.5725 30.0707C62.3327 30.0603 61.6106 29.4362 61.6064 28.401C61.6023 27.3533 62.2931 26.7355 63.5537 26.7293C66.5466 26.7147 69.5394 26.7272 72.5323 26.7251C74.3585 26.7209 74.8949 26.1741 74.897 24.325C74.897 23.5757 74.9074 22.8285 74.8949 22.0793C74.8719 20.7227 74.2729 20.1091 72.9309 20.1049C69.84 20.0944 66.749 20.107 63.6601 20.0986C62.4454 20.0944 61.7066 19.533 61.6169 18.5917C61.5292 17.6609 62.0572 16.897 62.9922 16.7989C63.9252 16.7008 64.8748 16.7155 65.8161 16.7196C68.4813 16.7322 71.1507 16.6904 73.8117 16.8094C76.1805 16.9179 78.1048 18.9737 78.205 21.3467C78.2614 22.6449 78.2634 23.9493 78.2154 25.2475Z" fill="#F9F7F3"/>
<path d="M43.2212 37.745C43.1794 35.4701 42.1004 33.5813 40.3765 32.0828C38.8529 30.7596 37.0559 30.123 35.0294 30.0312C35.0002 29.0043 35.0356 28.0234 34.7852 27.08C34.1361 24.6298 31.8361 23.1459 29.1918 23.4464C26.919 23.7052 25.0782 25.8007 24.9362 28.3093C24.9049 28.877 24.9321 29.4489 24.9321 30.052H23.7174C18.4809 30.0604 13.2402 30.0061 8.00373 30.1001C4.86893 30.1564 2.55644 31.7384 0.984864 34.4537C0.527792 35.2426 0.375435 36.1213 0.106201 36.9624V52.9119C0.106201 52.9181 0.108288 52.9265 0.108288 52.9328C0.277342 54.3499 0.838768 55.6126 1.70073 56.7354C3.52067 59.1084 6.00221 60.0727 8.92622 60.0706C13.2861 60.0664 17.6461 60.0956 22.006 60.0622C26.5934 60.0288 31.1808 60.225 35.764 59.9537C39.646 59.7241 43.121 56.2992 43.217 52.388C43.336 47.5105 43.3068 42.6246 43.2212 37.745ZM8.36271 53.346C7.43395 53.3669 6.67008 52.6593 6.63669 51.7473C6.60747 50.8832 7.3943 50.0505 8.26879 50.0213C9.12867 49.99 9.97602 50.7872 10.0073 51.6555C10.0386 52.5341 9.26641 53.3272 8.36271 53.346ZM24.4437 52.8889C23.5442 53.1874 22.63 53.3815 22.1479 53.3606C17.1431 53.4023 13.5804 49.9315 13.3154 45.221C13.0795 41.0113 16.59 37.1043 20.927 36.7432C21.6574 36.6827 22.3775 36.6598 22.8951 37.3026C23.2812 37.7847 23.4544 38.3211 23.1998 38.9368C22.9264 39.5942 22.4589 39.9824 21.7347 40.0408C20.232 40.1598 18.8879 40.6169 17.8777 41.819C16.5023 43.4574 16.2894 45.6822 17.3518 47.5356C18.3661 49.3054 20.5534 50.3281 22.4923 49.9399C24.6691 49.5016 26.1989 47.9029 26.5141 45.7407C26.5558 45.4506 26.608 45.1625 26.6581 44.8745C26.8188 43.9416 27.5284 43.3238 28.382 43.3718C29.2795 43.4198 29.9494 44.1649 29.9724 45.1438C30.0517 48.3913 27.5785 51.8496 24.4437 52.8889ZM31.5732 30.0061H28.3319C28.4405 28.9355 27.975 27.7917 29.0958 27.0341C29.6614 26.6522 30.2646 26.6564 30.8323 27.0425C31.9572 27.8063 31.4751 28.9438 31.5732 30.0061Z" fill="#F9F7F3"/>
<path d="M84.9107 72.7474C84.9086 74.8011 83.9423 75.4523 82.0493 74.6968C77.0048 72.6765 71.9604 70.6604 66.9201 68.6338C66.4275 68.4355 65.9391 68.3479 65.4111 68.35C61.9945 68.3646 58.5801 68.3625 55.1656 68.3562C53.0305 68.352 51.6969 67.0956 51.6029 64.9564C51.5549 63.8857 51.5633 62.8088 51.6134 61.7381C51.6614 60.7196 52.3501 60.0308 53.2371 60.0058C54.1492 59.9828 54.9131 60.7279 54.9548 61.7715C54.9945 62.8088 54.9632 63.8502 54.9632 64.9898H64.858V55.1575C64.593 54.9634 64.2569 55.0719 63.9481 55.0719C61.022 55.0615 58.0938 55.0761 55.1677 55.0594C54.1304 55.0532 53.473 54.5627 53.3039 53.6819C53.1537 52.893 53.4834 52.2919 54.1763 51.8996C54.6209 51.647 55.1176 51.6888 55.5997 51.6888C58.8201 51.6846 62.0384 51.6742 65.2587 51.695C65.9224 51.6992 66.5381 51.5844 67.1496 51.3381C72.0981 49.3471 77.0675 47.3998 81.9972 45.3586C83.6188 44.6887 84.9566 45.2418 84.9399 47.3748C84.8711 55.8316 84.9149 64.2885 84.9107 72.7474Z" fill="#F9F7F3"/>
<path d="M50.0023 99.9965C43.9518 99.9965 37.8993 100.007 31.8488 99.9923C27.6872 99.9839 24.5294 97.4941 23.4984 93.4702C23.3106 92.7334 23.3022 91.9862 23.3022 91.2432C23.2897 82.6862 23.2918 74.1271 23.3001 65.57C23.3001 65.1547 23.3064 64.7018 23.4608 64.3282C23.7321 63.6729 24.3332 63.3264 25.0157 63.3535C25.6439 63.3786 26.1907 63.6916 26.4767 64.3303C26.6728 64.7665 26.6561 65.2173 26.6561 65.6702C26.6561 74.1625 26.6541 82.6549 26.6561 91.1493C26.6561 94.6014 28.7057 96.6571 32.1702 96.6592C44.0123 96.6655 55.8545 96.6425 67.6966 96.6738C70.9858 96.6822 73.29 94.4803 73.2211 91.1535C73.1292 86.5995 73.196 82.0434 73.1981 77.4873C73.1981 75.8447 73.7658 75.0162 74.8928 75.0057C76.0219 74.9932 76.6209 75.8385 76.6209 77.4539C76.6209 82.0413 76.6397 86.6308 76.6147 91.2182C76.598 94.0608 75.6191 96.4839 73.3087 98.2621C71.7622 99.4538 70.0007 99.9986 68.0535 99.9965C62.0385 99.9923 56.0214 99.9965 50.0023 99.9965Z" fill="#F9F7F3"/>
<path d="M54.0929 76.7273C50.1608 76.7273 46.2287 76.7253 42.2967 76.7294C41.873 76.7294 41.4514 76.7273 41.0507 76.5687C40.2993 76.2724 39.909 75.7088 39.9591 74.9116C40.0071 74.1623 40.412 73.6259 41.1592 73.4423C41.5641 73.3442 41.9919 73.3087 42.4094 73.3087C50.2088 73.3004 58.0082 73.3024 65.8077 73.3024C65.9058 73.3024 66.0018 73.3004 66.0999 73.3024C67.4815 73.3379 68.2558 73.9557 68.2516 75.0222C68.2475 76.0887 67.4627 76.7211 66.0852 76.7232C62.0885 76.7315 58.0917 76.7273 54.0929 76.7273Z" fill="#F9F7F3"/>
<path d="M58.2964 46.7068C55.0113 46.7089 51.7262 46.7047 48.4411 46.711C47.648 46.7131 47.0678 46.4 46.736 45.6654C46.448 45.0246 46.6045 44.4486 47.0344 43.9435C47.3893 43.5261 47.8714 43.3591 48.4244 43.3591C54.9946 43.3633 61.5647 43.355 68.1349 43.3696C69.1951 43.3717 69.9381 44.1021 69.9444 45.033C69.9506 45.9555 69.2139 46.6901 68.1516 46.6964C64.8665 46.7193 61.5814 46.7047 58.2964 46.7068Z" fill="#F9F7F3"/>
<path d="M40.0238 65.0252C42.1026 65.0252 44.1813 65.0189 46.2601 65.0273C47.5248 65.0335 48.343 65.7306 48.3033 66.7387C48.2637 67.73 47.4893 68.3541 46.2601 68.3562C42.0379 68.3603 37.8157 68.3624 33.5935 68.3562C32.3956 68.3541 31.5941 67.6737 31.5941 66.6928C31.5941 65.7118 32.3893 65.0356 33.5935 65.0294C35.737 65.0168 37.8804 65.0252 40.0238 65.0252Z" fill="#F9F7F3"/>
<path d="M40.0406 85.0171C37.9285 85.0171 35.8163 85.0276 33.7042 85.013C32.3977 85.0025 31.6129 84.3681 31.5983 83.36C31.5837 82.3206 32.4206 81.6528 33.7668 81.6507C37.9264 81.6465 42.0838 81.6528 46.2434 81.6465C47.0052 81.6444 47.6626 81.8385 48.0613 82.5419C48.3722 83.0928 48.3555 83.6543 48.0279 84.2011C47.6292 84.869 46.9927 85.0213 46.2768 85.0192C44.2001 85.013 42.1214 85.0151 40.0406 85.0171Z" fill="#F9F7F3"/>
<path d="M60.7423 85.0173C58.9558 85.0173 57.1713 85.0277 55.3848 85.0131C54.0219 85.0027 53.21 84.3369 53.2455 83.2996C53.2789 82.2853 54.0824 81.6508 55.3764 81.6487C59.0121 81.6425 62.6478 81.6508 66.2856 81.6445C67.0996 81.6425 67.7528 81.9138 68.1118 82.6797C68.4019 83.2975 68.2788 83.8861 67.8634 84.412C67.4377 84.9526 66.8262 85.0173 66.1959 85.0173C64.378 85.0173 62.5602 85.0173 60.7423 85.0173Z" fill="#F9F7F3"/>
<path d="M38.3833 88.2959C39.9424 88.2959 41.4994 88.2834 43.0584 88.3022C43.7743 88.3106 44.4046 88.5568 44.7552 89.2372C45.062 89.832 45.0077 90.4164 44.6237 90.9737C44.2293 91.5455 43.6324 91.6937 43.0083 91.6979C39.8589 91.7146 36.7095 91.7271 33.5622 91.6937C32.3579 91.6812 31.5794 90.9361 31.5982 89.976C31.6191 88.9993 32.4122 88.3147 33.6123 88.3001C35.2026 88.2813 36.793 88.2959 38.3833 88.2959Z" fill="#F9F7F3"/>
<path d="M56.6015 88.298C58.1918 88.298 59.7822 88.2771 61.3725 88.3063C62.2428 88.323 62.9587 88.6549 63.1841 89.6003C63.3699 90.3788 63.1194 91.0029 62.4328 91.4307C62.0321 91.6812 61.575 91.7041 61.1221 91.7041C58.1042 91.7104 55.0862 91.7187 52.0683 91.702C50.8077 91.6958 50.1273 91.2074 49.9499 90.2661C49.7537 89.2288 50.5802 88.3314 51.8304 88.3043C53.4207 88.2709 55.0111 88.298 56.6015 88.298Z" fill="#F9F7F3"/>
<path d="M94.9829 56.6582C95.991 56.6582 97.0012 56.6331 98.0071 56.6644C99.1529 56.6999 99.8792 57.3782 99.8834 58.355C99.8876 59.315 99.2531 60.0079 98.1219 60.0392C95.9764 60.0977 93.8288 60.0998 91.6833 60.0434C90.5062 60.0121 89.8759 59.2962 89.9176 58.2736C89.9552 57.3406 90.6585 56.6999 91.7626 56.6644C92.8353 56.6331 93.9102 56.6582 94.9829 56.6582Z" fill="#F9F7F3"/>
<path d="M89.8194 66.6824C90.2765 66.6907 90.6438 66.8285 90.9694 67.0455C92.566 68.1016 94.171 69.1493 95.7405 70.2429C96.6254 70.8607 96.8111 71.8375 96.281 72.6201C95.7572 73.3944 94.7721 73.599 93.8663 73.0188C92.2279 71.969 90.6104 70.8795 89.0117 69.7713C88.348 69.31 88.0308 68.6755 88.3334 67.8261C88.6006 67.0831 89.1432 66.77 89.8194 66.6824Z" fill="#F9F7F3"/>
<path d="M89.9677 51.7429C89.2184 51.6594 88.6507 51.3693 88.3481 50.6514C88.0392 49.9146 88.2124 49.228 88.801 48.8106C90.5479 47.5729 92.3302 46.3812 94.1502 45.2542C94.8932 44.795 95.6967 45.0037 96.2268 45.7259C96.7465 46.4376 96.7695 47.2766 96.0724 47.8317C94.2963 49.2468 92.3866 50.4802 90.4185 51.6156C90.2807 51.697 90.1075 51.7074 89.9677 51.7429Z" fill="#F9F7F3"/>
</svg>
